<mxfile host="65bd71144e">
    <diagram id="qyWdGbGDhxEuCoiY6TiE" name="Page-1">
        <mxGraphModel dx="1072" dy="563" grid="1" gridSize="10" guides="1" tooltips="1" connect="1" arrows="1" fold="1" page="1" pageScale="1" pageWidth="850" pageHeight="1100" math="0" shadow="0">
            <root>
                <mxCell id="0"/>
                <mxCell id="1" parent="0"/>
                <mxCell id="2" value="Start" style="ellipse;whiteSpace=wrap;html=1;" vertex="1" parent="1">
                    <mxGeometry x="360" y="10" width="130" height="50" as="geometry"/>
                </mxCell>
                <mxCell id="3" value="ประกาศตัวแปร&#xa;d, s (จำนวนเต็ม)" style="whiteSpace=wrap;html=1;" vertex="1" parent="1">
                    <mxGeometry x="300" y="100" width="250" height="60" as="geometry"/>
                </mxCell>
                <mxCell id="4" value="แสดงข้อความ&#xa;Input Days :" style="shape=parallelogram;perimeter=parallelogramPerimeter;whiteSpace=wrap;html=1;" vertex="1" parent="1">
                    <mxGeometry x="300" y="190" width="250" height="60" as="geometry"/>
                </mxCell>
                <mxCell id="5" value="รับค่า d (จำนวนเต็ม วัน)" style="shape=parallelogram;perimeter=parallelogramPerimeter;whiteSpace=wrap;html=1;" vertex="1" parent="1">
                    <mxGeometry x="300" y="280" width="250" height="60" as="geometry"/>
                </mxCell>
                <mxCell id="6" value="คำนวณวินาที&#xa;s = d × 86400" style="whiteSpace=wrap;html=1;" vertex="1" parent="1">
                    <mxGeometry x="300" y="370" width="250" height="60" as="geometry"/>
                </mxCell>
                <mxCell id="7" value="แสดงผล ต่าที่คำนวณได้" style="shape=parallelogram;perimeter=parallelogramPerimeter;whiteSpace=wrap;html=1;" vertex="1" parent="1">
                    <mxGeometry x="300" y="460" width="250" height="80" as="geometry"/>
                </mxCell>
                <mxCell id="8" value="Stop" style="ellipse;whiteSpace=wrap;html=1;" vertex="1" parent="1">
                    <mxGeometry x="360" y="570" width="130" height="50" as="geometry"/>
                </mxCell>
                <mxCell id="9" style="endArrow=classic;orthogonal=1;rounded=0;" edge="1" parent="1" source="2" target="3">
                    <mxGeometry relative="1" as="geometry"/>
                </mxCell>
                <mxCell id="10" style="endArrow=classic;orthogonal=1;rounded=0;" edge="1" parent="1" source="3" target="4">
                    <mxGeometry relative="1" as="geometry"/>
                </mxCell>
                <mxCell id="11" style="endArrow=classic;orthogonal=1;rounded=0;" edge="1" parent="1" source="4" target="5">
                    <mxGeometry relative="1" as="geometry"/>
                </mxCell>
                <mxCell id="12" style="endArrow=classic;orthogonal=1;rounded=0;" edge="1" parent="1" source="5" target="6">
                    <mxGeometry relative="1" as="geometry"/>
                </mxCell>
                <mxCell id="13" style="endArrow=classic;orthogonal=1;rounded=0;" edge="1" parent="1" source="6" target="7">
                    <mxGeometry relative="1" as="geometry"/>
                </mxCell>
                <mxCell id="14" style="endArrow=classic;orthogonal=1;rounded=0;" edge="1" parent="1" source="7" target="8">
                    <mxGeometry relative="1" as="geometry"/>
                </mxCell>
            </root>
        </mxGraphModel>
    </diagram>
</mxfile>